HIERARCHY
ROOT Hips
{
	OFFSET 0.000000 0.000000 0.000000
	CHANNELS 6 Xposition Yposition Zposition Xrotation Yrotation Zrotation
	JOINT LeftUpLeg
	{
		OFFSET 3.102150 0.000000 0.000000
		CHANNELS 6 Xposition Yposition Zposition Xrotation Yrotation Zrotation
		JOINT LeftLeg
		{
			OFFSET 0.000000 -0.000001 -16.833309
			CHANNELS 6 Xposition Yposition Zposition Xrotation Yrotation Zrotation
			JOINT LeftFoot
			{
				OFFSET 0.000000 -0.000001 -15.538792
				CHANNELS 6 Xposition Yposition Zposition Xrotation Yrotation Zrotation
				JOINT LeftToeBase
				{
					OFFSET 0.000000 -5.872970 -1.573662
					CHANNELS 6 Xposition Yposition Zposition Xrotation Yrotation Zrotation
					End Site
					{
						OFFSET 0.000000 -2.952750 0.000000
					}
				}
			}
		}
	}
	JOINT RightUpLeg
	{
		OFFSET -3.102150 0.000000 0.000000
		CHANNELS 6 Xposition Yposition Zposition Xrotation Yrotation Zrotation
		JOINT RightLeg
		{
			OFFSET 0.000000 -0.000001 -16.833309
			CHANNELS 6 Xposition Yposition Zposition Xrotation Yrotation Zrotation
			JOINT RightFoot
			{
				OFFSET 0.000000 -0.000001 -15.538792
				CHANNELS 6 Xposition Yposition Zposition Xrotation Yrotation Zrotation
				JOINT RightToeBase
				{
					OFFSET 0.000000 -5.872970 -1.573662
					CHANNELS 6 Xposition Yposition Zposition Xrotation Yrotation Zrotation
					End Site
					{
						OFFSET 0.000000 -2.952750 0.000000
					}
				}
			}
		}
	}
	JOINT Spine
	{
		OFFSET 0.000000 0.000000 0.039370
		CHANNELS 6 Xposition Yposition Zposition Xrotation Yrotation Zrotation
		JOINT Spine1
		{
			OFFSET 0.000000 0.000001 8.310460
			CHANNELS 6 Xposition Yposition Zposition Xrotation Yrotation Zrotation
			JOINT Neck
			{
				OFFSET 0.000000 0.000000 6.254630
				CHANNELS 6 Xposition Yposition Zposition Xrotation Yrotation Zrotation
				JOINT Head
				{
					OFFSET 0.000000 0.000001 8.608170
					CHANNELS 6 Xposition Yposition Zposition Xrotation Yrotation Zrotation
					End Site
					{
						OFFSET 0.000000 0.000000 4.527550
					}
				}
			}
			JOINT LeftShoulder
			{
				OFFSET 0.000000 0.000000 6.254630
				CHANNELS 6 Xposition Yposition Zposition Xrotation Yrotation Zrotation
				JOINT LeftArm
				{
					OFFSET 7.448570 -0.000000 -0.000030
					CHANNELS 6 Xposition Yposition Zposition Xrotation Yrotation Zrotation
					JOINT LeftForeArm
					{
						OFFSET 10.735449 -0.000000 -0.000040
						CHANNELS 6 Xposition Yposition Zposition Xrotation Yrotation Zrotation
						JOINT LeftHand
						{
							OFFSET 10.158400 -0.000000 -0.000040
							CHANNELS 6 Xposition Yposition Zposition Xrotation Yrotation Zrotation
							JOINT LeftHandThumb
							{
								OFFSET 0.000000 0.000000 0.000000
								CHANNELS 6 Xposition Yposition Zposition Xrotation Yrotation Zrotation
								End Site
								{
									OFFSET 0.000000 -3.937000 0.000000
								}
							}
							JOINT L_Wrist_End
							{
								OFFSET 3.937000 -0.000000 -0.000010
								CHANNELS 6 Xposition Yposition Zposition Xrotation Yrotation Zrotation
								End Site
								{
									OFFSET 0.000000 0.000000 0.100000
								}
							}
						}
					}
				}
			}
			JOINT RightShoulder
			{
				OFFSET 0.000000 0.000000 6.254630
				CHANNELS 6 Xposition Yposition Zposition Xrotation Yrotation Zrotation
				JOINT RightArm
				{
					OFFSET -7.448570 -0.000000 -0.000030
					CHANNELS 6 Xposition Yposition Zposition Xrotation Yrotation Zrotation
					JOINT RightForeArm
					{
						OFFSET -10.735449 -0.000000 -0.000040
						CHANNELS 6 Xposition Yposition Zposition Xrotation Yrotation Zrotation
						JOINT RightHand
						{
							OFFSET -10.158400 -0.000000 -0.000040
							CHANNELS 6 Xposition Yposition Zposition Xrotation Yrotation Zrotation
							JOINT RightHandThumb
							{
								OFFSET 0.000000 0.000000 0.000000
								CHANNELS 6 Xposition Yposition Zposition Xrotation Yrotation Zrotation
								End Site
								{
									OFFSET 0.000000 -3.937000 0.000000
								}
							}
							JOINT R_Wrist_End
							{
								OFFSET -5.393688 -0.000000 -0.000020
								CHANNELS 6 Xposition Yposition Zposition Xrotation Yrotation Zrotation
								End Site
								{
									OFFSET 0.000000 0.000000 0.100000
								}
							}
						}
					}
				}
			}
		}
	}
}
MOTION
Frames: 4
Frame Time: 0.041667
-65.800201 12.174903 33.678501 5.523257 1.185170 -68.386115 3.102149 -0.000002 0.000004 11.338073 -13.251443 6.368651 -0.000001 -0.000002 -16.833311 0.138699 -0.000000 -0.000001 0.000002 0.000000 -15.538789 -15.783495 30.044916 7.376265 0.000002 -5.872972 -1.573661 -2.083797 -0.000001 -0.000001 -3.102151 -0.000004 0.000004 4.217733 0.130781 2.437206 -0.000003 -0.000002 -16.833309 -3.041601 -0.000001 0.000000 0.000005 -0.000001 -15.538790 -10.250255 -5.785956 -0.229669 -0.000002 -5.872977 -1.573663 3.273600 0.000000 -0.000004 0.000001 -0.000001 0.039373 -7.255088 -2.086153 -0.384255 0.000002 0.000002 8.310454 4.542850 -3.815040 -2.773049 -0.000004 0.000004 6.254633 18.508501 -0.565976 4.335013 0.000002 -0.000003 8.608169 -33.486939 11.708551 -3.124478 -0.000005 0.000004 6.254633 13.365534 -21.416417 -11.797499 7.448570 -0.000008 -0.000034 -58.399893 101.930007 46.544119 10.735447 -0.000005 -0.000040 -0.000100 -0.000003 -24.700196 10.158395 0.000000 -0.000040 -6.457211 8.176654 7.140966 0.000002 0.000000 0.000000 -0.000000 -0.000000 0.000002 3.937004 0.000004 -0.000010 0.000000 0.000000 0.000001 -0.000004 0.000004 6.254632 18.165742 14.697044 0.269827 -7.448567 -0.000003 -0.000031 81.320000 -93.530070 82.263270 -10.735439 0.000005 -0.000038 -0.000000 0.000001 4.510102 -10.158397 0.000000 -0.000044 -24.917409 -20.423029 19.340640 -0.000000 -0.000002 0.000001 -0.000001 -0.000000 0.000003 -5.393688 -0.000004 -0.000019 -0.000000 -0.000001 0.000003 
-65.752800 12.087502 33.675400 5.496981 1.164752 -68.407486 3.102153 -0.000003 -0.000003 11.719687 -13.025885 6.369142 -0.000003 0.000002 -16.833305 -0.690301 0.000000 0.000003 0.000001 -0.000003 -15.538791 -15.475918 30.014566 7.372143 0.000001 -5.872971 -1.573660 -2.048196 -0.000000 0.000004 -3.102148 -0.000004 -0.000004 4.104556 0.329610 2.405140 0.000004 -0.000005 -16.833307 -2.872300 -0.000000 0.000002 0.000002 -0.000012 -15.538790 -10.310738 -5.918654 -0.225399 0.000011 -5.872971 -1.573667 3.253100 0.000001 0.000000 0.000004 -0.000003 0.039366 -7.235249 -1.947641 -0.445756 0.000005 0.000005 8.310460 4.557627 -4.030751 -2.784393 -0.000003 0.000000 6.254633 18.508424 -0.674933 4.255996 -0.000003 -0.000001 8.608176 -33.686619 11.613254 -3.004153 -0.000003 -0.000001 6.254633 13.462801 -21.446143 -11.722570 7.448572 -0.000004 -0.000025 -55.452865 101.442810 44.170844 10.735450 -0.000001 -0.000040 -0.000100 0.000000 -24.280001 10.158402 -0.000007 -0.000041 -7.148765 7.855101 7.015050 -0.000000 -0.000000 0.000000 -0.000000 -0.000000 0.000000 3.937000 -0.000001 -0.000010 -0.000000 -0.000000 0.000000 -0.000002 -0.000001 6.254633 18.274453 14.665827 0.187407 -7.448573 0.000008 -0.000028 89.175216 -94.863008 89.171255 -10.735443 0.000002 -0.000036 0.000002 -0.000000 3.665600 -10.158403 -0.000003 -0.000046 -25.344518 -20.486348 19.178253 -0.000000 0.000002 0.000001 0.000000 -0.000000 0.000001 -5.393688 0.000004 -0.000019 0.000001 -0.000000 0.000002 
-65.698799 11.996902 33.675201 5.448168 1.136305 -68.481655 3.102150 0.000004 0.000001 12.060989 -12.765218 6.415408 -0.000001 -0.000006 -16.833309 -1.431799 -0.000000 -0.000003 0.000001 -0.000012 -15.538788 -15.143182 30.028640 7.321805 0.000000 -5.872976 -1.573661 -2.081299 -0.000001 -0.000001 -3.102150 0.000005 -0.000003 3.920932 0.564504 2.400815 0.000004 0.000006 -16.833313 -2.582600 -0.000000 0.000001 0.000001 -0.000000 -15.538790 -10.409102 -6.071870 -0.185339 0.000003 -5.872964 -1.573663 3.265102 0.000000 0.000002 0.000000 0.000003 0.039369 -7.187572 -1.820836 -0.480644 -0.000002 0.000006 8.310457 4.562866 -4.239444 -2.774092 -0.000001 -0.000005 6.254635 18.494863 -0.741365 4.240155 0.000001 -0.000006 8.608172 -33.875699 11.503183 -2.946025 -0.000001 -0.000005 6.254635 13.579086 -21.475459 -11.625061 7.448571 -0.000004 -0.000028 -52.662780 100.973548 41.899078 10.735455 -0.000001 -0.000040 -0.000100 -0.000001 -23.868600 10.158395 0.000004 -0.000041 -8.012824 7.896057 6.994037 0.000002 -0.000003 -0.000001 -0.000000 0.000000 0.000001 3.937004 -0.000007 -0.000010 -0.000000 0.000000 -0.000000 -0.000000 -0.000005 6.254634 18.442793 14.683192 0.067090 -7.448569 -0.000005 -0.000030 93.978704 -96.090305 93.094290 -10.735449 0.000005 -0.000042 0.000002 0.000000 3.006600 -10.158397 -0.000006 -0.000038 -25.915131 -20.563401 19.028514 0.000002 0.000006 0.000002 -0.000001 0.000000 0.000000 -5.393684 0.000002 -0.000019 -0.000001 0.000000 -0.000000 
-65.652000 11.907503 33.677299 5.382548 1.081294 -68.382235 3.102150 0.000001 0.000002 12.294148 -12.530740 6.238062 0.000001 -0.000003 -16.833303 -2.085500 -0.000000 -0.000001 0.000003 -0.000003 -15.538789 -14.827055 29.972007 7.301525 -0.000003 -5.872965 -1.573663 -2.094497 0.000001 0.000001 -3.102150 -0.000000 -0.000000 3.731249 0.800254 2.114903 0.000002 0.000000 -16.833309 -2.260800 0.000000 -0.000000 0.000001 -0.000005 -15.538790 -10.521507 -6.172499 -0.035405 -0.000000 -5.872972 -1.573663 3.229498 0.000001 -0.000001 -0.000001 0.000000 0.039370 -7.194818 -1.634108 -0.607249 -0.000003 0.000009 8.310459 4.586254 -4.438525 -2.850053 0.000001 -0.000002 6.254637 18.496909 -0.850097 4.212169 -0.000000 0.000002 8.608178 -34.078908 11.389806 -2.866298 0.000000 -0.000002 6.254637 13.647942 -21.558054 -11.555531 7.448573 -0.000003 -0.000029 -49.949447 100.546347 39.765993 10.735449 0.000004 -0.000040 -0.000100 -0.000002 -23.519299 10.158405 0.000002 -0.000040 -9.038645 8.095151 6.934131 0.000002 0.000005 0.000001 0.000000 0.000000 0.000000 3.937004 0.000006 -0.000009 -0.000000 -0.000000 -0.000000 0.000001 -0.000002 6.254637 18.600471 14.715086 -0.081779 -7.448567 -0.000005 -0.000030 97.281640 -97.384386 95.476148 -10.735453 -0.000004 -0.000045 0.000000 0.000001 2.586900 -10.158398 -0.000005 -0.000043 -26.391781 -20.947866 18.759623 -0.000002 0.000007 0.000002 -0.000000 0.000000 -0.000000 -5.393688 0.000007 -0.000020 -0.000000 0.000000 0.000000 
